<?xml version="1.0" encoding="utf-8"?>
<!-- Generator: Adobe Illustrator 19.2.1, SVG Export Plug-In . SVG Version: 6.00 Build 0)  -->
<svg version="1.1" id="Layer_1" xmlns="http://www.w3.org/2000/svg" xmlns:xlink="http://www.w3.org/1999/xlink" x="0px" y="0px"
	 viewBox="0 0 139.6 32.1" style="enable-background:new 0 0 139.6 32.1;" xml:space="preserve">
<style type="text/css">
	.st0{fill-rule:evenodd;clip-rule:evenodd;fill:#FFC221;}
</style>
<path class="st0" d="M6.6,23.4H4.7v-4.8h1.8V23.4z M11.1,8.8l-2.9-3H0v21.8h8.2l3.3-3.1v-5.7l-2.7-2.1l2.3-2.2V8.8z M4.6,10.1h1.9
	v4.4H4.6V10.1z"/>
<path class="st0" d="M67.9,23.4 M69.7,23.4h-1.8v-4.8h1.8V23.4z M74.3,8.8l-2.9-3h-8.2v21.8h8.2l3.4-3.1v-5.7L72,16.5l2.3-2.1V8.8z
	 M69.7,14.4h-2V10h2V14.4z"/>
<polyline class="st0" points="12.7,5.7 12.7,27.5 21.8,27.5 21.8,23.4 17.4,23.4 17.4,5.7 12.7,5.7 "/>
<polyline class="st0" points="101.2,5.7 101.2,10 103.9,10 103.9,27.5 108.8,27.5 108.8,10 111.4,10 111.4,5.7 101.2,5.7 "/>
<polyline class="st0" points="56.6,5.7 53.6,14.6 53.6,5.7 48.8,5.7 48.8,27.5 53.6,27.5 53.6,18 57.4,27.5 62.2,27.5 57.4,15.7 
	61.4,5.7 56.6,5.7 "/>
<path class="st0" d="M26.3,5.7L22.9,9v15.4l3.4,3.2H31l3.3-3.2V9L31,5.7H26.3 M27.7,10h1.8v13.3h-1.8V10z"/>
<polyline class="st0" points="89,9.1 89,15.7 92,18.7 95.5,19 95.5,23.3 93.7,23.3 93.7,20.5 89,20.5 89,24.3 92.3,27.5 97.1,27.5 
	100.3,24.3 100.3,17.8 97.2,14.7 93.7,14.4 93.7,10.1 95.6,10.1 95.6,12.9 100.3,12.9 100.3,9.1 97.1,5.7 92.3,5.7 89,9.1 "/>
<polyline class="st0" points="82.7,5.8 82.7,23.3 80.7,23.3 80.7,5.8 76,5.8 76,24.3 79.4,27.5 84.2,27.5 87.5,24.3 87.5,5.8 
	82.7,5.8 "/>
<polyline class="st0" points="35.9,9 35.9,24.3 39.3,27.5 44.1,27.5 47.3,24.3 47.3,18.2 42.5,18.2 42.5,23.4 40.7,23.4 40.7,10 
	42.5,10 42.5,14.2 47.3,14.2 47.3,9 44.1,5.7 39.3,5.7 35.9,9 "/>
<polyline class="st0" points="112.6,5.7 112.6,27.5 121.5,27.5 121.5,23.5 117.3,23.5 117.3,18.1 120.7,18.1 120.7,14.1 117.2,14.1 
	117.2,10.2 121.5,10.2 121.5,5.7 112.6,5.7 "/>
<path class="st0" d="M134,8.9l-2.9-3.1h-8.2l0,21.8h4.7l0-8.9h1.8l0,8.9h4.9l0-8.9l-2.7-2.1l2.3-2V8.9 M129.5,14.4h-1.9V10h1.9V14.4
	z"/>
<path class="st0" d="M134.4,3.2c0-1.4,1.1-2.5,2.5-2.5c1.4,0,2.5,1.1,2.5,2.5c0,1.4-1.1,2.5-2.5,2.5C135.5,5.8,134.4,4.6,134.4,3.2
	L134.4,3.2z M139.2,3.2c0-1.2-1-2.2-2.2-2.2c-1.2,0-2.2,1-2.2,2.2c0,1.2,1,2.2,2.2,2.2C138.2,5.5,139.1,4.5,139.2,3.2L139.2,3.2z
	 M138.2,4.6l-0.4,0L137,3.3l-0.6,0l0,1.3l-0.3,0l0-2.8l1.2,0c0.2,0,0.5,0,0.7,0.1c0.2,0.1,0.3,0.4,0.3,0.6c0,0.6-0.4,0.8-0.9,0.8
	L138.2,4.6l-1.3-1.6c0.4,0,1,0.1,1-0.5c0-0.4-0.4-0.5-0.7-0.5l-0.8,0l0,1l0.5,0L138.2,4.6L138.2,4.6z"/>
</svg>
